/* XPM */
static char *e571496402d8440994f857be4953e9fca9hkvIMXTox1ri8H[] = {
/* columns rows colors chars-per-pixel */
"32 32 238 2 ",
"   c #A3AF65",
".  c #859859",
"X  c #6F3132",
"o  c #AC7E4D",
"O  c #A97D4C",
"+  c #6A4C31",
"@  c #92A25F",
"#  c #AB7E4D",
"$  c #A5B166",
"%  c #A3B065",
"&  c #798751",
"*  c #60282A",
"=  c #A2A863",
"-  c #A0AD63",
";  c #7B9156",
":  c #9A7748",
">  c #87473F",
",  c #6C3D36",
"<  c #8D4A3F",
"1  c #A4AF65",
"2  c #9EAC63",
"3  c #A77B4B",
"4  c #8D7949",
"5  c #A5784A",
"6  c #715234",
"7  c #937962",
"8  c #B29C78",
"9  c #AA9473",
"0  c #64332D",
"q  c #7D7849",
"w  c #6B7248",
"e  c #899D5C",
"r  c #BF7455",
"t  c #A2AE64",
"y  c #755837",
"u  c #9BAA62",
"i  c #84673E",
"p  c #98A862",
"a  c #697C4B",
"s  c #6F824E",
"d  c #647647",
"f  c #725144",
"g  c #7C3B37",
"h  c #65292B",
"j  c #743534",
"k  c #936259",
"l  c #673933",
"z  c #A87F73",
"x  c #9D9C5E",
"c  c #A3AC64",
"v  c #9B9156",
"b  c #917246",
"n  c #55713C",
"m  c #957347",
"M  c #856D57",
"N  c #8F9057",
"B  c #71864E",
"V  c #A57B4C",
"C  c #95A65F",
"Z  c #694636",
"A  c #805A4F",
"S  c #603E33",
"D  c #814639",
"F  c #653F36",
"G  c #898651",
"H  c #89534C",
"J  c #7D614F",
"K  c #846E44",
"L  c #77694B",
"P  c #927C60",
"I  c #5A2526",
"U  c #6B483D",
"Y  c #6D423D",
"T  c #73513B",
"R  c #8E5046",
"E  c #81634F",
"W  c #889FA3",
"Q  c #9E8869",
"!  c #A57364",
"~  c #914E42",
"^  c #B59688",
"/  c #B16951",
"(  c #B96F52",
")  c #634630",
"_  c #99A15F",
"`  c #98834E",
"'  c #877457",
"]  c #829456",
"[  c #AD7F4E",
"{  c #8C7344",
"}  c #9D985A",
"|  c #735C42",
" . c #785C4A",
".. c #C5B286",
"X. c #6C4F3D",
"o. c #4F332E",
"O. c #525E3B",
"+. c #808953",
"@. c #936441",
"#. c #5B3F2C",
"$. c #82533A",
"%. c #82814D",
"&. c #773E35",
"*. c #978168",
"=. c #9F5947",
"-. c #6A2C2E",
";. c #825049",
":. c #C3BAA9",
">. c #A28C6D",
",. c #79423F",
"<. c #BCAFA1",
"1. c #D6D2C2",
"2. c #7A858B",
"3. c #92B4BB",
"4. c #753C39",
"5. c #7C6560",
"6. c #B09A8C",
"7. c #8697A0",
"8. c #955145",
"9. c #5D2D2C",
"0. c #AB644D",
"q. c #976F65",
"w. c #AD725D",
"e. c #D0A58F",
"r. c #EDE4D5",
"t. c #995D4F",
"y. c #915844",
"u. c #9E9F60",
"i. c #B59D64",
"p. c #A37B4C",
"a. c #BCC46D",
"s. c #ABB266",
"d. c #85794C",
"f. c #8A814F",
"g. c #937A49",
"h. c #626243",
"j. c #947E4C",
"k. c #A48D6E",
"l. c #726F42",
"z. c #795B3C",
"x. c #58362D",
"c. c #7E7051",
"v. c #946C5A",
"b. c #977647",
"n. c #63593A",
"m. c #757F4D",
"M. c #848A51",
"N. c #836956",
"B. c #62493D",
"V. c #7F5F40",
"C. c #783735",
"Z. c #895B54",
"A. c #564E33",
"S. c #7D8D95",
"D. c #CAC2B2",
"F. c #B88878",
"G. c #804541",
"H. c #6D4F4F",
"J. c #C8AE9E",
"K. c #C6947E",
"L. c #995747",
"P. c #C48E78",
"I. c #7B8584",
"U. c #9D6657",
"Y. c #B57157",
"T. c #A98D83",
"R. c #854D47",
"E. c #88533E",
"W. c #905C52",
"Q. c #9E7E76",
"!. c #C28268",
"~. c #B37863",
"^. c #8F8549",
"/. c #958C53",
"(. c #9FA761",
"). c #766140",
"_. c #777F4D",
"`. c #A0814E",
"'. c #556642",
"]. c #696747",
"[. c #C0AD82",
"{. c #A17548",
"}. c #7A6C3F",
"|. c #A27C6E",
" X c #CAB789",
".X c #CEBC8D",
"XX c #4D432F",
"oX c #956D46",
"OX c #8F6F67",
"+X c #5C6B43",
"@X c #8A665F",
"#X c #7E5749",
"$X c #622E2F",
"%X c #A79170",
"&X c #BFA293",
"*X c #5C3731",
"=X c #6F656A",
"-X c #B18674",
";X c #8EA5AD",
":X c #D5C4B5",
">X c #A58A7E",
",X c #5E5F65",
"<X c #8AA6B2",
"1X c #6B6F72",
"2X c #584141",
"3X c #CAB6A8",
"4X c #97BAC4",
"5X c #B1A094",
"6X c #A4614D",
"7X c #C59F8E",
"8X c #919E5D",
"9X c #5C8040",
"0X c #422A22",
"qX c #A5AD66",
"wX c #A69E5A",
"eX c #5D7149",
"rX c #8A7C68",
"tX c #A48F6F",
"yX c #D3C28F",
"uX c #B8C26C",
"iX c #70633A",
"pX c #C6C26C",
"aX c #8B827D",
"sX c #C6C2B9",
"dX c #7F7372",
"fX c #705954",
"gX c #847E7E",
"hX c #8EA8B0",
"jX c #F8F5EA",
"kX c #7B4C38",
"lX c #69693F",
"zX c #A67062",
"xX c #9F8B82",
"cX c #DCB69D",
"vX c #D1B6A3",
"bX c #84AF59",
"nX c #A39832",
"mX c #85314D",
/* pixels */
"_.& +.` b.V 4 & m.& @ e p e a w w +.& ; C @ s m.m.M.` : V 4 & _.",
"b K %.` o `.M.q m K G 8Xq V.E.y.y.E.T %.8Xe %.b K %.` O `.+.q b ",
"p.5 : g.O f.& j.# : K E t./ r r r r ~.q.L s j.O p.b.g.O f.& j.3 ",
"O [ V 4 3 g.m 5 @.kXy.7Xe.( r r ( !.r.jX<. .oXo [ p.4 3 4 b 3 # ",
"O o O 5 O V {.$.&.< y.U.Y.w.vXcX( w.:XsX1.&XD @.O # 3 # 3 O O # ",
"# : p.b.4 oX7 ^ R 5.7.I.;.! r.r.!./ v.I.;XaXD D $.5 o # # # O # ",
"p.q d.K q *.D.J.5.S.7.3.5./ e.e.P.!.5.3.W S.fXL.|.M 5 # # # # # ",
"}.l.l.iXf <.6.gX3.2.;X<XH.6X0./ J.^ B.<XhXI.3.dXk ;.@.[ # # # # ",
"n.w l.#.&.U.R =XW W 7.,X, Y.( ( 0.8.0 ,X7.W W =XD ~ D {.# # # # ",
"wXs.N 0 g > > , 2.4X1Xo.k e.Y.r K.F.> o.1X4X2., ! -X&.$.O # # O ",
"a.a.d.h C.Z.|.< H.S.2Xj R ! =.w.:X3XR g 2X2.H.W.:.<.G.0 {.o o m ",
"s.a.} 0 j ,.;.> > Y H ~ ~ =.K.&Xz k 8.8.,.F 4.H 6.OXX &.3 # o m ",
"$ qXc ).h * -.g > ^ 3Xk ~ z 1.1.-X=.8.W.5XOXG.k 4.-.0 @.[ [ o # ",
"= x c (.).I I X ,.>X<.Z.> 6.:.D.z < > k T.A ,.@X$XI $.{ b.b.O o ",
"v = $ $ (.G | 0 h 4.;.X -.;.T.z G.g C.j X h * I * X l lXM.q b.: ",
"u.% %   % $ t N | F l Y 9.h j j C.H Z.-.* 9.9.j z zX< Z G q }.m ",
"% $ %         $   G P 8 *.Y * -.-.Y f 9.U E T L.K.P.0.< , } } { ",
"c = 1 = =       t c.>... X9 J S *XF f 7 9 *.E w./ 0.~.&Xq.z.s.pX",
"x x u.} =     % _ ' 8 .XyX%Xf T X. .tX[.[.k.M D.P.< z 1.:.A v uX",
"^.v ^.c %     % N ' 8 .XQ X.+ z.y F J .. X9 M :.F.< R.6.>X, f.$ ",
"i.i.v x c       d.7 8 9 X.Z V.i i T Z P ..9 ' A < g X 4.X F _ % ",
"i.4 v = 1   % _ L P 8 M Z + i b { 6 ) | 8 9 P U g X * * S G $ % ",
"{ /.    % u N V.E.A k.E S + y y y 6 ) U >.9 P U * $X .| _ %     ",
"/.u.1 1 % N rXzX=.v.7 M S + 6 z.y + #.B.Q Q P J J 7 >.].@ %     ",
"x = 1 - p L OXH R H #XN.x.+ + + + + #.*X#XE N.J 8 ..>.h.] @ 2   ",
"- %   2 e w x., @XY A N.o.) 6 + 6 + S Q.~.7XT.f Q %Xc.d . u -   ",
"2     2 @ s h.P *.f '  .o.) i i i T xXr.F.t.t.~ Z n.w ; p %     ",
"%   t @ @ s +X' c.h.].B.0X#.6 y 6 l Q.^ t.6X^ ! 0 O.B . C %   % ",
"      % p . . +.w a eX'.O.XXA.n.A.I j W.L.U.5Xq.x.d @ @ t % 1 C ",
"      % @ @ - u u . ; B & '.a s d XXl Q.R.X , S w . - 2   % - B ",
"2       t 2 @ ] ] ; e . ; a ; d s +XA.U l , X.O.. u p t % - B n ",
"-     1 u a n n n O.d ; . ; ] . e B d L Q >.L a C % e C p & n 9X"
};
