/* XPM */
static char *_52cf83edef64971984192cc40eb5275JmDre4ag24vbzqQV[] = {
/* columns rows colors chars-per-pixel */
"32 32 6 1 ",
"  c #4F812E",
". c #528530",
"X c #4B7C2C",
"o c #568A33",
"O c #739B58",
"+ c #6E9555",
/* pixels */
"++O+O+OO++++OO+OOOO++++OOO+OOO++",
" . . XX. XX . . XX. XX   . XX.XX",
"...o o.o.o....o o.o.o . ...oo..o",
".   oo  .. .   oo  ....   o.X...",
".  .  X XXX.  .     XX. ..   X X",
"o. .  .oo .o. .  o.o .o. .. o.oX",
"  X .XX.XXX  X..XX.XXX XX. X .XX",
"o. .o o..  .. ...o..  .. o..... ",
"X.XX o.  XXX.XX o.  XX  XX.o  XX",
"    .ooo.XX    oo.o XX    oo.oX ",
".oo..  . . .oo.   oX. oooo   .Xo",
"X .X X . XXX .  X oXXXX.     oXX",
" o o . ..   . o .... X...o ...  ",
". ...o...o.. ..oo...o . . oo...o",
"    o.  . X.   o.  .X    .o. ..X",
"o. .    XX o  .   X X . ...X.X X",
"o.X.   oo  o.X.  .oo  o X. XoooX",
". X..XX.XXX  X..XX.XXX XX. X .XX",
"..  ..o .  .. ..oo o  .. ..o. o ",
"X XX o.. XXX XX.o.. XX   X.o. XX",
"..  .o.o. X..  oo.o .X.  .oo.o .",
" oo..X .    oo. X oX. .oo.   .X.",
"  . .XX. XXX .  XXoXXXX.   XXoXX",
".o o o.o.. ...o o.o.. ...o oo...",
".   oo  .o..X. oo ..o..X. oo ..o",
"   ...   XX   ..    XX   ..    X",
"o. .. ..   o. .. . .X.o.... . .X",
"..X  XXo. X. X  X ..XX. X. X.. X",
".  .o ..   .  .. ..   .  o. ..  ",
" .XX o. .X  .X  o. .X ..X  o. .X",
"X  X.o...XXX  Xoo.. XXXX Xoo..XX",
"oo. ...o . oo ....o . o. ....o o"
};
