/* XPM */
static char *b862b95a60b94ae1ade2791cdb75b8e76JxdiBvh2rS4rnUB[] = {
/* columns rows colors chars-per-pixel */
"32 32 250 2 ",
"   c #EAEAEA",
".  c gray93",
"X  c #937761",
"o  c #E9EAEA",
"O  c #EFEEEE",
"+  c #ECEDEC",
"@  c #EBEBE9",
"#  c #EDECEC",
"$  c black",
"%  c #E9E9E9",
"&  c gray92",
"*  c #F7F8F7",
"=  c #B9A58A",
"-  c #9D3424",
";  c #B4A187",
":  c #A52C1C",
">  c #BFAD95",
",  c #E5E4E2",
"<  c #ECE6D1",
"1  c #A68D77",
"2  c #ECEBED",
"3  c #997E69",
"4  c #DED4BD",
"5  c #BAA78D",
"6  c #F6F3F2",
"7  c #923324",
"8  c #9F2616",
"9  c #E0E1DC",
"0  c #E7E6E5",
"q  c #AC977F",
"w  c #DAD8D3",
"e  c #985848",
"r  c #948360",
"t  c #D2C5AF",
"y  c #A64333",
"u  c #8D725E",
"i  c #684535",
"p  c #E4E0DF",
"a  c #696738",
"s  c #A78E6F",
"d  c #F3F2F2",
"f  c #AC9273",
"g  c #AA2B18",
"h  c #80614D",
"j  c #A93222",
"k  c #765642",
"l  c #E1DDD8",
"z  c #A6392A",
"x  c #856852",
"c  c #972C1D",
"v  c #A28971",
"b  c #C6B59C",
"n  c #9E836F",
"m  c #957A64",
"M  c #B0574A",
"N  c #AC947A",
"B  c #9A8068",
"V  c #C3B197",
"C  c #BBBC8F",
"Z  c #6B7E32",
"A  c #D4D0CC",
"S  c #626A30",
"D  c #CEC2BE",
"F  c #ECE7E4",
"G  c #A58666",
"H  c #A52917",
"J  c #B2997B",
"K  c #9B2414",
"L  c #6F2D26",
"P  c #A32818",
"I  c #F3EEED",
"U  c #BE8075",
"Y  c #993C2A",
"T  c #CABDB6",
"R  c #882113",
"E  c #E3C4BD",
"W  c #DEC0B9",
"Q  c #B09E82",
"!  c #CEC3A9",
"~  c #929972",
"^  c #8C6C5A",
"/  c #C8A8A5",
"(  c #7E913E",
")  c #844736",
"_  c #7C7F4A",
"`  c #8A9060",
"'  c #60732B",
"]  c #DACFCB",
"[  c #B76255",
"{  c #89A041",
"}  c #728436",
"|  c #A2BB50",
" . c #A18365",
".. c #9D4F3B",
"X. c #865F48",
"o. c #942414",
"O. c #EEDFDB",
"+. c #70190E",
"@. c #913D2C",
"#. c #5F150C",
"$. c #B14030",
"%. c #D8CAC5",
"&. c #D08E81",
"*. c #7E1D11",
"=. c #8E644E",
"-. c #7A5A44",
";. c #CEB1AE",
":. c #D2BFBB",
">. c #CBBDA5",
",. c #E7E0C9",
"<. c #BA5847",
"1. c #B86B59",
"2. c #7F8D50",
"3. c #E4DCC5",
"4. c #7D392B",
"5. c #DCBCB5",
"6. c #CA8E84",
"7. c #857056",
"8. c #9C906F",
"9. c #A4A778",
"0. c #964936",
"q. c #B49E84",
"w. c #EEE9D5",
"e. c #7F6849",
"r. c #8F5A45",
"t. c #6F613F",
"y. c #D7CBB3",
"u. c #888752",
"i. c #DED9D8",
"p. c #73663C",
"a. c #8E8E53",
"s. c #9DAB62",
"d. c #9E9D86",
"f. c #864E3A",
"g. c #6D793A",
"h. c #AB796C",
"j. c #A8998F",
"k. c #B04C3E",
"l. c #81983B",
"z. c #A17C61",
"x. c #EFEFF0",
"c. c #F3E9E6",
"v. c #B49C7C",
"b. c #9B706B",
"n. c #B99D9A",
"m. c #936059",
"M. c #C57E70",
"N. c #B37465",
"B. c #C3A19D",
"V. c #AC837E",
"C. c #A25F53",
"Z. c #9D7D7A",
"A. c #E8D0CA",
"S. c #DCB0A9",
"D. c #D6D7CD",
"F. c #D6A096",
"G. c #AEB592",
"H. c #CACEC1",
"J. c #C1B5B3",
"K. c #BCAC99",
"L. c #869C41",
"P. c #DECFB9",
"I. c #B8BDA5",
"U. c #8DA051",
"Y. c #A9B56D",
"T. c #775B4E",
"R. c #B3A192",
"E. c #80723B",
"W. c #757143",
"Q. c #747A48",
"!. c #B49591",
"~. c #D6D6BE",
"^. c #805D3B",
"/. c #727D41",
"(. c #D2C9BE",
"). c #79853E",
"_. c #BAACA2",
"`. c #CAB0AB",
"'. c #758B38",
"]. c #A35041",
"[. c #A96961",
"{. c #C4C6BB",
"}. c #8F9F57",
"|. c #AF806C",
" X c #CAB9A1",
".X c #8D825A",
"XX c #82854A",
"oX c #645030",
"OX c #9E8862",
"+X c #DED4D2",
"@X c #C2B4A6",
"#X c #A7A688",
"$X c #7A8C3F",
"%X c #90A944",
"&X c #899170",
"*X c #BFBFAF",
"=X c #7A7552",
"-X c #7C5D56",
";X c #5F582C",
":X c #ABA194",
">X c #D6AAA3",
",X c #86311F",
"<X c #7F3025",
"1X c #A37357",
"2X c #E8D9D3",
"3X c #8D726E",
"4X c #B4BF8E",
"5X c #AD6150",
"6X c #94644D",
"7X c #8D473C",
"8X c #7C4835",
"9X c #805440",
"0X c #E2D9C3",
"qX c #78271C",
"wX c #C7CDB8",
"eX c #A68372",
"rX c #B7B996",
"tX c #6E1C13",
"yX c #89826C",
"uX c #ACA77D",
"iX c #A76249",
"pX c #817650",
"aX c #877C5F",
"sX c #887D55",
"dX c #CEC4B8",
"fX c #9A9266",
"gX c #B8B88A",
"hX c #B78B77",
"jX c #E2DEC5",
"kX c #60372A",
"lX c #8F7245",
"zX c #BA8370",
"xX c #614021",
"cX c #EAE4CE",
"vX c #684A2F",
"bX c #B39586",
"nX c #8B2D20",
"mX c #97AD51",
"MX c #7E645C",
"NX c #543F26",
"BX c #80765D",
"VX c #A9C255",
"CX c #5C5F30",
"ZX c #493920",
"AX c #D4CEC0",
"SX c #905245",
"DX c #B58D85",
"FX c #DEEAED",
"GX c #EAED61",
"HX c #ED77EA",
/* pixels */
"d . . . . # # # . # # O 0 D !.Z.b.n.F # # + + # . . . . . O * $ ",
"& % %   % %     %     :.m.L tX+.qX/ I I #     %   % %     % O $ ",
"# %       %       0 n.L #.+.R R ..O.* 6 d O p o   %         O $ ",
"#     &   %   o & T L #.*.o.: P $.A.* * * O.[./       & &   O $ ",
"# %     %     % F 2XV.*.K <.F.&.$.1.W A.E U c 7 B.%       % O $ ",
"#           % F c.c.W - j S.6 6 &.g j z z : : 8 7 B.        O $ ",
"#   o   & , @ 6 6 6 E z j 5.* * F.: g g j &.S.<.K 7 `.&     O $ ",
"#     & i.b.`.* * O.M.: 8 1.W 5.M 8 H g $.E I M.H 8 Y :.& % O $ ",
"#   @ i.m.+.@.U 6.M : P 8 8 - - c c - - - 5XU y P P K ].+X& O $ ",
"# o   %.C.R o.K H g : - @.4.4.8X9XX.=.k -.X.=.6Xe 0.7 R [.p x.$ ",
"# p %.F |.o.P j y ..r.X.h k k x ^ X -.i k T.h x X n  .r.,XDXO $ ",
"& V.7XN.Y 7 ..1XG  .X h h x x r 5 = X u X X m X X B q q.z.SX] $ ",
"D L *.7 e z.s f s s 1 3 3 N pXQ.!  X3 m 1 q.> V > = q.; ; z./ $ ",
"Z.#.) G s f J J f v 3 X N = W.' 9. Xu x h m Q = > >.y.y.b 1 D $ ",
"3Xi  .G v.= q.1 v v B X = ; u.U.$X9.X .Xa.XX8.> > q q q.5 @X, $ ",
"J.^ G  .f = J J f n u m V Q gXY.%X$Xt.a S CXr N b V q.R.@Xp x.$ ",
"  T q s v.v v q q R.u v V V C mX| %Xg.d.&X:XAX(.] l 9 % &   O $ ",
"+   , l w w l p % A n 5 ; C }.l.VX| l.#X*XD D +X& &       % O $ ",
"#     & & & &   W h.|.V fXs.'.} | | l.a ^ 4.<X`.d # &       O $ ",
"#       % 9   ] M 1.].hXu.( Z ' { { } =X<X- k.>XI 5.;.    % O $ ",
"#       % G.~.%.k.<.z zX8.XX_ S Z ' ` l [ 6.E k.[ M y / &   O $ ",
"& %     , s.}.#X) Y [ P.4 t 8._ ` e.h.>Xy M U - : 6.[ z ;.& O $ ",
"&       A ` 2.aX7.Q 4 w.w.! _ g.=Xh.c y 0.) f.r.f.=.e 0.e :.x.$ ",
"#       9 {.d.7.5 4 cX< cXb u.).xXf.lXOXm B 5 ; u 3 1 q N bX@ $ ",
"#   o @ , I.yXr C ~.,.,.0X5 uX` oX-.a sXB > 4 >.X B = > > dX# $ ",
"# % % 2 wX~ ~ L.( rX4 P.! q C 2.).E.W.7.u t ,.4 K.T (.] w % O $ ",
"#   @ 0 eX^.t.S Q.! b >.; B Y.'.L.{ Z t..X3.< cXt A w H.# % O $ ",
"#   & , C.Y p.e.r iXe 5 n x ( Z ' Z S a s.jXw.< 3.K.9.4X0   O $ ",
"#   & 9 r E./._ a ,Xc |.^ k p.p.a ;XNX} { C cX3.< t a.U.D.@ O $ ",
"#     w 2./.} ( S vX@.y ) kXi i i oXZX;Xa.= t t y.4 8.G.9   O $ ",
"#     , I.H.~ g.&Xd.^.nXe -XT.MXi -Xj.BXv 3 X 3 X n _.0 @   O $ ",
". %     & 2 , {.D.*Xj.!.+X, p , A i.% w A T :Xj._.J.9 &     d $ "
};
