/* XPM */
static char *bbdec240d7f14e03aee0518ab9289bcc2CXymubOhSaRX6iO[] = {
/* columns rows colors chars-per-pixel */
"32 32 194 2 ",
"   c white",
".  c #EAE9E9",
"X  c #D3D1D1",
"o  c #CF332D",
"O  c #D83731",
"+  c #9D2825",
"@  c #EEEEEE",
"#  c black",
"$  c #D63731",
"%  c #D73630",
"&  c #F6F7F7",
"*  c #ADABAB",
"=  c #E7E6E6",
"-  c #B1AEAE",
";  c #C2312B",
":  c #D33630",
">  c #84221F",
",  c #693F2B",
"<  c #CCC9C9",
"1  c #F9FAFA",
"2  c #D7D6D6",
"3  c #A22B26",
"4  c #F1F2F2",
"5  c #DDDCDC",
"6  c #A5A2A2",
"7  c #25508A",
"8  c #724730",
"9  c #754A32",
"0  c #912422",
"q  c #FEFEFE",
"w  c #C2BFBE",
"e  c #BEBBBB",
"r  c #F4F4F4",
"t  c gray99",
"y  c #77706F",
"u  c #7F7A7A",
"i  c #6B2B27",
"p  c #9F9C9C",
"a  c #B6302B",
"s  c #999696",
"d  c #5A4641",
"f  c #2E66AE",
"g  c #794B32",
"h  c #6F442E",
"j  c #ECCAAC",
"k  c #952924",
"l  c #7D5B3C",
"z  c #CA332D",
"x  c #97908E",
"c  c #A29F9E",
"v  c #C6C4C4",
"b  c #B5B3B3",
"n  c #7C211D",
"m  c #5E3B2A",
"M  c #64422D",
"N  c #CE9B65",
"B  c #8A2D28",
"V  c #BD2F29",
"C  c #F1B776",
"Z  c #9F928C",
"A  c #846E5E",
"S  c #D6B69C",
"D  c #294D81",
"F  c #C2A58C",
"G  c #482535",
"H  c #765238",
"J  c #F8D5B5",
"K  c #A9A19F",
"L  c #A47E57",
"P  c #864F4D",
"I  c #7D4D34",
"U  c #1F1715",
"Y  c #813937",
"T  c #B18557",
"R  c #95704B",
"E  c #929193",
"W  c #715D4F",
"Q  c #845958",
"!  c #A9A7A7",
"~  c #8D7976",
"^  c #BCB6B4",
"/  c #D9D8D8",
"(  c #955E5D",
")  c #892220",
"_  c #8A3E3A",
"`  c #AC605D",
"'  c #9B2E2C",
"]  c #A18874",
"[  c #D7A269",
"{  c #8B756D",
"}  c #943531",
"|  c #9F3632",
" . c #704642",
".. c #AF2C28",
"X. c #5A2422",
"o. c #753120",
"O. c #B69983",
"+. c #B2B3B7",
"@. c #DABA9E",
"#. c #8C735E",
"$. c #802F28",
"%. c #606768",
"&. c #78675B",
"*. c #3F2F28",
"=. c #4A3431",
"-. c #332927",
";. c #9F7E6D",
":. c #B5ACA6",
">. c #624B41",
",. c #5C3726",
"<. c #E0DFE0",
"1. c #7C5554",
"2. c #672B20",
"3. c #876241",
"4. c #7A2B29",
"5. c #A19994",
"6. c #9E7D7D",
"7. c #502F25",
"8. c #AEA7A5",
"9. c #671B19",
"0. c #90949D",
"q. c #93847A",
"w. c #6D5233",
"e. c #34435E",
"r. c #AE7B7A",
"t. c #838080",
"y. c #86665C",
"u. c #495C79",
"i. c #3C4B65",
"p. c #A37A50",
"a. c #E9B173",
"s. c #927067",
"d. c #541413",
"f. c #2B61A7",
"g. c #A5A8AC",
"h. c #6A3735",
"j. c #BA9E87",
"k. c #E2E0E1",
"l. c #787C85",
"z. c #601C1D",
"x. c #B8937D",
"c. c #AC937E",
"v. c #555B69",
"b. c #2A5898",
"n. c #917A6A",
"m. c #D0B39C",
"M. c #F6D2B3",
"N. c #5C5F51",
"B. c #454950",
"V. c #B5A598",
"C. c #CBA990",
"Z. c #7C4E22",
"A. c #E2C1A5",
"S. c #695956",
"D. c #694930",
"F. c #64554B",
"G. c #614335",
"H. c #8F6945",
"J. c #8C5553",
"K. c #9E8484",
"L. c #A0784F",
"P. c #481F18",
"I. c #6D6666",
"U. c #DEBDA0",
"Y. c #B8413D",
"T. c #701D1C",
"R. c #355784",
"E. c #E5A3A1",
"W. c #DA9997",
"Q. c #EB9D9A",
"!. c #A27565",
"~. c #5A2C3B",
"^. c #30394C",
"/. c #A08468",
"(. c #233F69",
"). c #818E92",
"_. c #854B25",
"`. c #2C60A4",
"'. c #4E4C4C",
"]. c #5F7986",
"[. c #A99A35",
"{. c #6C3040",
"}. c #E0C0A4",
"|. c #A89033",
" X c #BEB43C",
".X c #624A4D",
"XX c #765452",
"oX c #4E4D55",
"OX c #F9D7B7",
"+X c #99652B",
"@X c #6A94FF",
"#X c #9DFFE9",
"$X c #FFE9D1",
"%X c #EAD12D",
/* pixels */
"#                           4 < / 1 k.~ h.i 1.v               # ",
"#                         @ s.} Y y. ._ r.` ..Y e             # ",
"#                         < ' % ..> 9.( Q.W.` ;  .=           # ",
"#                       q X | O o ..) 4.r.E.` % k 8.          # ",
"#                         & ( ; $.X.B n $.6.Y.% V {           # ",
"#                       t @ ^ h.{ c.O.7.d.z.z $ z Q &         # ",
"#                     r 5.q.~ '.%.S m.{ =.d.3 $ o P 4         # ",
"#               4 @   e c.M.j n.&.m.g.).n.> ) : o ( &         # ",
"#           . - c p * p C.J M.j S V.].N.@.!.i a o P .         # ",
"#         = p X r 2 ! y W @.j A.A.V.%.O.j F W k $ 3 K.        # ",
"#       t 6 / t v 6 u I.-.U =.-.*.d *.j.s.M m i a o J.&       # ",
"#       = ! r e - p k.s S.d U U U -.A }.A m y.j.x.B 6.q       # ",
"#       . s X c t.! * 6 x F &.S.XX;.J M.F ] ] ] @.q..         # ",
"#         s y - . ! B.v..X .#.} | C.OXJ j S S U.O.w           # ",
"#         v l.+.+.l.N.w.0 G oX;.x.F ;.A d *.&.Z ^ 1           # ",
"#         . i.7 7 B.[.Z.0 ' G =._ B G D 7 (.i.E 5 t           # ",
"#   & < - w 0.u.e.X.o.k : a Z.+XV {.b.f f f f.7 e.s b . q     # ",
"# 4 u m , M y X Q + + ; : $. X|.i D `.b.f.f f R.g.@ b E ! 2   # ",
"# Z l 3.9 I , d X.> 0 > ) n _.o.z.D 7 ^.u.D 7 0.&   X ! <.6 < # ",
"# R [ T R 8 I 2.+ z $ : + T.0 3 ; ~.G * @ +.v.s 2 = - =   . E # ",
"# p.C a.T l g , a O $ $ $ 3 ; O $ V Q &     5 u @ 1 r     = u # ",
"# #.a.C N H.8 h 3 O $ $ $ $ $ $ % a Z       & p 1 t       b 6 # ",
"# Z N C [ R 9 8 k $ $ $ $ $ $ $ O + I.c * 5   6 b E < q X t.2 # ",
"# 5 /.[ N L.H 8 B : ; $ $ $ $ $ : 9.P.,.M #.. 4 - u c X y w   # ",
"#   8.p.N L l h n _ 1.' z $ $ z ) k V o.8 l ^     & e * 5     # ",
"#   / L C T H ,.d w r K i > > n + : O k , M 5.                # ",
"#   q K L 3.W x .       ~ + ; o $ $ O 3 , h A @               # ",
"#     & w - =           2 Y z O $ $ O + , 9 H <               # ",
"#                         e P | } 4.+ 2.9 g w.:.              # ",
"#                           @ X 2 y 7.8 I 9 D.:.              # ",
"#                                 v G.g g m F.5               # ",
"#                                 t K >.>.x <.                # "
};
