/* XPM */
static char *_06a088007a54dabc650dd53ef890e2b46nPGn7NCAEktscU[] = {
/* columns rows colors chars-per-pixel */
"32 32 103 2 ",
"   c #BEC8C2",
".  c #466733",
"X  c #567A3A",
"o  c #537638",
"O  c #426231",
"+  c #38562C",
"@  c #5F843D",
"#  c #C0CAC4",
"$  c #62883F",
"%  c #35522A",
"&  c #4D6F36",
"*  c #668B40",
"=  c #BEC8C1",
"-  c #517337",
";  c #5D823C",
":  c #B3BDB5",
">  c #B9C4BB",
",  c #405F30",
"<  c #3E5D30",
"1  c #304827",
"2  c #5A7E3B",
"3  c #2C4324",
"4  c #3C5A2E",
"5  c #587D3A",
"6  c #5E7551",
"7  c #5B813B",
"8  c #596E45",
"9  c #496B34",
"0  c #6B9042",
"q  c #BBC5BE",
"w  c #719745",
"e  c #677861",
"r  c #B6C0B8",
"t  c #324E28",
"y  c #AFB9B1",
"u  c #455B30",
"i  c #354A2F",
"p  c #2C3622",
"a  c #99A59A",
"s  c #A8B6A1",
"d  c #A9B5AC",
"f  c #2B3F24",
"g  c #829081",
"h  c #516741",
"j  c #A1B097",
"k  c #50644B",
"l  c #4A6D34",
"z  c #5A6856",
"x  c #506833",
"c  c #5D6935",
"v  c #5A7539",
"b  c #6F835C",
"n  c #6F8240",
"m  c #71503C",
"M  c #545E3D",
"N  c #B0BCAB",
"B  c #929F93",
"V  c #395231",
"C  c #6F7E6D",
"Z  c #8A8240",
"A  c #6B6E38",
"S  c #637D3C",
"D  c #6A7F51",
"F  c #513830",
"G  c #644637",
"H  c #9EAE91",
"J  c #61715F",
"K  c #A4B0A7",
"L  c #576B4D",
"P  c #799F49",
"I  c #788C61",
"U  c #99A98E",
"Y  c #56723B",
"T  c #738470",
"R  c #B8A653",
"E  c #95A585",
"W  c #5A7940",
"Q  c #958F48",
"!  c #73743A",
"~  c #76895E",
"^  c #879A71",
"/  c #44573E",
"(  c #8D9D82",
")  c #788676",
"_  c #818F47",
"`  c #817D3F",
"'  c #3A3226",
"]  c #594D35",
"[  c #534733",
"{  c #595A3B",
"}  c #535437",
"|  c #534F44",
" . c #819848",
".. c #8C9F77",
"X. c #7C8F68",
"o. c #78813E",
"O. c #B19E4F",
"+. c #737658",
"@. c #486737",
"#. c #464437",
"$. c #899689",
"%. c #708750",
"&. c #738669",
/* pixels */
"                        # = y y > d r #                         ",
"                  = q : y ( 6 L e 8 e a                         ",
"                # B e 6 6 * @ 2 2 ; 7 6 K =                     ",
"              r a b 2 ; * w P P 0 $ 7 & k K                     ",
"            : e W 7 ; $ w P P w 0 * @ l k y #   #               ",
"            g A R  .$ $ 0 w 0 ; o.Z - O C j g g a d             ",
"            y +.Z S ; $ @ $ $ @ - x + % Y W - X Y L a #         ",
"            q C < & X 7 0 _ X X @.+ O o @ w * $ ; & 6 K         ",
"          q q y T h O + c ` u O , . o ; w w 0 * @ ; h K         ",
"      q K &.b X.a g e z #.| 1 X @ $ ; * w $ * n n 5 < ) =       ",
"    r T 8 2 7 7 W h 6 6 u u @.$ * @ $ ; @ * S O.R v + ) =       ",
"  d J & @ * $ 2 * * X o $ - X ; @ $ S  .$ 2 o c A u V a #       ",
"# $.O 5 $ X * * @ w @ 5 5 2 @ o l 9 c Q x 9 O + t % / B B r     ",
"y e Y n o @ 0 S Q S o 0 $ 0 * - o 2 . 4 4 + 3 3 % , - W @.) >   ",
"B V A Z & $ @ x ! x 2 $ @ $ $ 7 X - . + 1 f p 4 o @ X n _ u C > ",
": z % O . o X o l X ; 5 X 2 ; X 5 - , f ' i < o o 5 5 c ! + z r ",
"# K k + % 4 4 & 9 . . . . & & 9 + + 3 ' ' 4 o 7 5 7 o & , 4 L : ",
"  # g i t % % t + % + < + O + % 1 p ' | h - o o o 2 & & < 3 C > ",
"  d k O v . O , O + % 1 3 % 3 3 3 1 + V < ` Q x . & . O V e :   ",
"# g 1 Q R v l X X l . < , . < O O & o 5 O u c @.n n , 1 J q     ",
"r z t A Z x & X o 9 . < < @.v Y & 7 X 5 . O < + ! c f e :       ",
": z f 3 1 4 & l O , . , < 4 ` Z O - & o v _ v % i z C :         ",
"# d J i i 1 t 4 + % % + 9 . 4 u O - 9 O ! R ! 1 e >             ",
"    q a B / k V 3 1 f 1 t % % % + 4 % % t u i g : =             ",
"      # = y : T J L T k / f 3 p p p p p i i 6 s N =             ",
"              N U ^ I b 8 ] F F F F F G { h 6 I j :             ",
"              s ^ b 8 M ] [ G G m m m G [ M 8 D ( s =           ",
"            > j ^ 6 h 8 M [ m } m G ] m } 8 8 I U H N           ",
"            > s j j I D 8 M M 8 { { h } M D ~ X.( N q           ",
"              = > j H H ..b ~ D %.D I ~ b E H E r               ",
"                = r = = N s U E ..U s E s > > :                 ",
"                        # # = = >     > q                       "
};
